<svg width="164" height="117" viewBox="0 0 164 117" fill="none" xmlns="http://www.w3.org/2000/svg">
<g clip-path="url(#clip0_1766_4807)">
<circle cx="35.5574" cy="23.6512" r="21.6512" fill="#AFD5BB"/>
<circle cx="128.346" cy="23.6512" r="21.6512" fill="#AFD5BB"/>
<path d="M2.87254 76.2191C3.9011 74.8405 5.06056 73.8216 6.35092 73.1624C7.65731 72.5151 8.96865 72.2459 10.2849 72.3546C11.6012 72.4633 12.8124 72.9303 13.9184 73.7555C14.8001 74.4133 15.464 75.1957 15.9103 76.1026C16.3726 77.0214 16.5789 77.9489 16.5292 78.885L21.1757 72.6574L25.2874 75.7252L12.0117 93.5183L7.90004 90.4506L9.33525 88.527C8.47213 88.8811 7.53638 88.9815 6.52799 88.828C5.53564 88.6865 4.56658 88.2629 3.62082 87.5572C2.51475 86.732 1.72219 85.704 1.24312 84.4732C0.776005 83.2263 0.666659 81.8846 0.915077 80.448C1.19148 79.0073 1.84397 77.5976 2.87254 76.2191ZM12.9053 83.7421C13.6708 82.7162 13.9862 81.6914 13.8517 80.6677C13.7331 79.656 13.2651 78.8452 12.4476 78.2352C11.6301 77.6252 10.7115 77.4015 9.69191 77.5641C8.7003 77.7225 7.82178 78.3147 7.05633 79.3406C6.29089 80.3666 5.96145 81.3934 6.06801 82.4211C6.20257 83.4448 6.67861 84.2616 7.49613 84.8716C8.31365 85.4815 9.2242 85.6993 10.2278 85.5248C11.2474 85.3622 12.1399 84.768 12.9053 83.7421Z" fill="#AFD5BB"/>
<path d="M38.2833 97.4439C38.0775 97.8775 37.836 98.3164 37.5588 98.7604L27.0704 93.782C26.6967 94.7559 26.6518 95.6201 26.9356 96.3747C27.2461 97.1198 27.7898 97.6768 28.5667 98.0455C29.7231 98.5944 30.7586 98.4882 31.6734 97.7269L36.606 100.068C35.8814 100.942 34.9961 101.618 33.9503 102.095C32.9225 102.581 31.8045 102.815 30.5964 102.795C29.3882 102.775 28.1698 102.473 26.9412 101.89C25.4596 101.187 24.2908 100.244 23.4346 99.0632C22.5784 97.8819 22.1038 96.5497 22.0108 95.0666C21.9178 93.5834 22.2443 92.0559 22.9904 90.484C23.7366 88.912 24.7045 87.689 25.8944 86.8147C27.1022 85.949 28.4344 85.4744 29.891 85.3909C31.3475 85.3074 32.8255 85.6215 34.3252 86.3333C35.7887 87.028 36.9438 87.9526 37.7905 89.1072C38.6372 90.2618 39.1066 91.5584 39.1987 92.9968C39.3088 94.4438 39.0037 95.9262 38.2833 97.4439ZM34.1194 93.9731C34.4967 93.1781 34.5258 92.4171 34.2068 91.69C33.8877 90.963 33.3217 90.4065 32.5086 90.0206C31.7317 89.6518 30.965 89.5646 30.2086 89.7591C29.4702 89.9621 28.8405 90.4491 28.3195 91.2202L34.1194 93.9731Z" fill="#AFD5BB"/>
<path d="M53.9385 88.1314L47.5307 109.386L42.619 107.906L49.0268 86.6506L53.9385 88.1314Z" fill="#AFD5BB"/>
<path d="M62.1954 93.8123C61.3103 93.6494 60.6296 93.2598 60.1533 92.6434C59.7003 92.0109 59.5444 91.3112 59.6855 90.544C59.8304 89.7573 60.2252 89.1588 60.8701 88.7488C61.5382 88.3227 62.3149 88.1911 63.2 88.354C64.0655 88.5133 64.7247 88.9092 65.1777 89.5416C65.654 90.158 65.8198 90.8596 65.6749 91.6464C65.5338 92.4135 65.1291 93.0101 64.4609 93.4362C63.816 93.8463 63.0609 93.9716 62.1954 93.8123ZM64.3883 95.9852L61.3582 112.449L56.3129 111.52L59.3431 95.0566L64.3883 95.9852Z" fill="#AFD5BB"/>
<path d="M69.6186 105.406C69.6737 103.667 70.0717 102.159 70.8124 100.881C71.5732 99.6049 72.5944 98.6368 73.8759 97.977C75.1774 97.3178 76.6478 97.0142 78.2869 97.0661C80.3859 97.1326 82.1176 97.7377 83.4821 98.8815C84.8666 100.026 85.747 101.605 86.1235 103.617L80.6663 103.445C80.247 102.151 79.3777 101.483 78.0584 101.441C77.1188 101.411 76.3575 101.757 75.7744 102.479C75.1919 103.181 74.8791 104.212 74.836 105.571C74.793 106.93 75.0396 107.989 75.5759 108.746C76.1128 109.484 76.8511 109.867 77.7906 109.897C79.1099 109.939 80.0198 109.327 80.52 108.062L85.9773 108.235C85.4755 110.18 84.4972 111.69 83.0425 112.765C81.5877 113.839 79.8209 114.343 77.7419 114.278C76.1028 114.226 74.6546 113.83 73.3974 113.089C72.1602 112.35 71.2023 111.319 70.5238 109.997C69.8653 108.675 69.5636 107.145 69.6186 105.406Z" fill="#AFD5BB"/>
<path d="M94.9486 94.8666C94.055 94.9732 93.2894 94.8027 92.6519 94.355C92.0319 93.8851 91.6757 93.2629 91.5833 92.4884C91.4886 91.6941 91.6884 91.0055 92.1829 90.4229C92.6949 89.818 93.3977 89.4623 94.2914 89.3557C95.1652 89.2515 95.9121 89.4343 96.5321 89.9042C97.1696 90.3518 97.5357 90.9728 97.6304 91.7672C97.7228 92.5417 97.513 93.2314 97.001 93.8363C96.5066 94.419 95.8224 94.7624 94.9486 94.8666ZM97.6867 96.2924L99.6692 112.915L94.5753 113.522L92.5928 96.8999L97.6867 96.2924Z" fill="#AFD5BB"/>
<path d="M116.096 109.746C114.516 110.188 112.997 110.25 111.537 109.932C110.096 109.608 108.835 108.923 107.753 107.876C106.689 106.824 105.923 105.46 105.454 103.784C104.99 102.128 104.949 100.571 105.33 99.1146C105.706 97.6385 106.435 96.3855 107.518 95.3555C108.6 94.3255 109.931 93.5894 111.51 93.1472C113.089 92.705 114.609 92.643 116.069 92.9611C117.529 93.2792 118.803 93.9714 119.89 95.0376C120.973 96.0845 121.746 97.4361 122.21 99.0924C122.673 100.749 122.708 102.318 122.313 103.799C121.931 105.256 121.19 106.502 120.088 107.537C119.006 108.567 117.675 109.303 116.096 109.746ZM114.898 105.47C115.842 105.206 116.544 104.635 117.005 103.759C117.485 102.877 117.544 101.79 117.183 100.5C116.822 99.2096 116.216 98.3094 115.368 97.7994C114.538 97.2841 113.651 97.1585 112.707 97.4228C111.744 97.6924 111.042 98.2629 110.601 99.1342C110.154 99.9862 110.114 101.067 110.481 102.377C110.842 103.667 111.428 104.573 112.238 105.093C113.068 105.609 113.955 105.734 114.898 105.47Z" fill="#AFD5BB"/>
<path d="M138.964 101.015C137.655 101.662 136.379 102.014 135.136 102.071C133.892 102.127 132.784 101.917 131.811 101.438C130.83 100.941 130.064 100.227 129.514 99.294L134.059 97.0478C134.37 97.5412 134.82 97.8429 135.41 97.953C136 98.063 136.608 97.963 137.236 97.6529C137.81 97.3693 138.196 97.0447 138.394 96.6789C138.602 96.2863 138.617 95.9107 138.44 95.5521C138.227 95.1218 137.848 94.9188 137.302 94.943C136.748 94.9494 135.906 95.0752 134.778 95.3204C133.578 95.601 132.553 95.7841 131.703 95.8696C130.844 95.9371 130.008 95.8035 129.196 95.4688C128.375 95.1162 127.712 94.4288 127.207 93.4068C126.781 92.5462 126.629 91.651 126.75 90.7214C126.879 89.7649 127.299 88.8546 128.01 87.9903C128.739 87.1171 129.739 86.366 131.012 85.7368C132.895 84.8065 134.605 84.5416 136.141 84.9423C137.696 85.3342 138.935 86.2612 139.858 87.7234L135.609 89.8235C135.28 89.3389 134.843 89.0417 134.298 88.9319C133.771 88.8131 133.193 88.9088 132.566 89.219C132.028 89.4848 131.669 89.7962 131.488 90.1531C131.299 90.4921 131.293 90.8409 131.47 91.1995C131.683 91.6298 132.066 91.8418 132.621 91.8355C133.193 91.8202 134.017 91.681 135.091 91.4176C136.345 91.1551 137.392 90.9945 138.233 90.9358C139.065 90.8592 139.896 91.0062 140.727 91.3768C141.566 91.7206 142.251 92.408 142.783 93.4391C143.217 94.3176 143.356 95.2306 143.2 96.178C143.052 97.0986 142.61 97.9865 141.872 98.8417C141.153 99.6881 140.184 100.413 138.964 101.015Z" fill="#AFD5BB"/>
<path d="M158.652 88.9282C157.342 89.9141 155.949 90.5241 154.473 90.7583C153.013 90.9804 151.589 90.8005 150.2 90.2185C148.827 89.6245 147.618 88.6323 146.572 87.2418C145.538 85.8673 144.934 84.4322 144.76 82.9365C144.573 81.4247 144.797 79.9924 145.431 78.6395C146.065 77.2866 147.038 76.1171 148.348 75.1312C149.659 74.1453 151.052 73.5353 152.527 73.3011C154.003 73.0669 155.441 73.2488 156.842 73.8468C158.231 74.4288 159.443 75.407 160.477 76.7815C161.511 78.156 162.113 79.6051 162.283 81.1288C162.457 82.6246 162.219 84.0549 161.569 85.4199C160.935 86.7728 159.963 87.9422 158.652 88.9282ZM155.983 85.3801C156.766 84.7909 157.213 84.0043 157.324 83.0201C157.45 82.0239 157.111 80.9904 156.305 79.9196C155.5 78.8488 154.609 78.2301 153.632 78.0635C152.672 77.8849 151.8 78.0902 151.017 78.6793C150.218 79.2805 149.771 80.0671 149.677 81.0393C149.57 81.9954 149.926 83.0169 150.743 84.1037C151.549 85.1745 152.424 85.8053 153.368 85.9959C154.328 86.1745 155.2 85.9692 155.983 85.3801Z" fill="#AFD5BB"/>
</g>
<defs>
<clipPath id="clip0_1766_4807">
<rect width="164" height="117" fill="white"/>
</clipPath>
</defs>
</svg>
