<svg width="215" height="102" viewBox="0 0 215 102" fill="none" xmlns="http://www.w3.org/2000/svg">
<g clip-path="url(#clip0_52_42)">
<path d="M89.0005 16C89.0005 24.8366 81.837 32 73.0005 32C64.1639 32 57.0005 24.8366 57.0005 16C57.0005 7.16344 64.1639 0 73.0005 0C81.837 0 89.0005 7.16344 89.0005 16Z" fill="#333333"/>
<path d="M159 16C159 24.8366 151.613 32 142.5 32C133.388 32 126 24.8366 126 16C126 7.16344 133.388 0 142.5 0C151.613 0 159 7.16344 159 16Z" fill="#333333"/>
<path d="M5.51353 32.7053C6.62777 32.0702 7.72889 31.7395 8.81688 31.7132C9.91217 31.6997 10.9139 31.9687 11.8221 32.52C12.7376 33.0842 13.4946 33.8914 14.0932 34.9416C14.8598 36.2864 15.1463 37.6078 14.953 38.9058C14.7669 40.2166 14.1138 41.378 12.9937 42.3898L11.0007 38.8933C11.6524 38.1316 11.7374 37.328 11.2556 36.4827C10.9125 35.8808 10.4018 35.5356 9.72348 35.4471C9.05801 35.3513 8.28982 35.5516 7.41892 36.048C6.54802 36.5444 5.97784 37.107 5.70837 37.7357C5.45172 38.3571 5.49495 38.9688 5.83806 39.5708C6.31988 40.4161 7.05458 40.7524 8.04216 40.5797L10.0352 44.0761C8.61943 44.5098 7.29379 44.4764 6.05826 43.9759C4.82272 43.4754 3.82534 42.5591 3.0661 41.2272C2.46748 40.177 2.15868 39.1143 2.13972 38.0391C2.12805 36.9767 2.40705 35.9777 2.97672 35.0422C3.55369 34.1194 4.39929 33.3404 5.51353 32.7053Z" fill="#333333"/>
<path d="M12.1745 54.9585C11.4376 54.0001 10.9772 52.9781 10.7932 51.8922C10.6182 50.8181 10.7398 49.7669 11.1579 48.7388C11.5851 47.7223 12.3071 46.8232 13.3238 46.0414C14.3289 45.2687 15.382 44.8123 16.4831 44.6723C17.5958 44.5234 18.6533 44.6773 19.6554 45.1341C20.6575 45.591 21.5269 46.2985 22.2637 47.2568C23.0006 48.2152 23.461 49.2372 23.645 50.3231C23.829 51.4089 23.7061 52.4704 23.2762 53.5075C22.858 54.5357 22.1464 55.4362 21.1414 56.2089C20.1363 56.9817 19.0729 57.4367 17.9511 57.574C16.85 57.714 15.7939 57.5497 14.7828 57.0812C13.7808 56.6243 12.9113 55.9168 12.1745 54.9585ZM14.7689 52.9636C15.2092 53.5363 15.7925 53.8595 16.5187 53.9334C17.254 54.019 18.0131 53.7607 18.7961 53.1587C19.5791 52.5566 20.0282 51.8952 20.1434 51.1744C20.2676 50.4652 20.1096 49.8243 19.6693 49.2517C19.22 48.6673 18.6367 48.3441 17.9195 48.2819C17.2139 48.2107 16.4638 48.4807 15.6691 49.0917C14.8861 49.6937 14.428 50.3435 14.2948 51.0409C14.1706 51.7501 14.3286 52.391 14.7689 52.9636Z" fill="#333333"/>
<path d="M23.1926 58.5254C24.0927 57.6117 25.0627 56.9946 26.1028 56.6741C27.1533 56.364 28.1904 56.351 29.2142 56.6353C30.2484 56.9298 31.196 57.5013 32.0572 58.3497C33.1599 59.436 33.7942 60.6301 33.9603 61.9319C34.1369 63.244 33.8234 64.539 33.0199 65.8168L30.1529 62.9923C30.5735 62.0823 30.4373 61.2858 29.7442 60.603C29.2506 60.1167 28.6654 59.923 27.9885 60.0219C27.322 60.1103 26.637 60.5115 25.9335 61.2256C25.23 61.9398 24.8338 62.6359 24.7451 63.3142C24.6667 63.9819 24.8743 64.5589 25.3678 65.0452C26.0609 65.728 26.8593 65.8524 27.763 65.4182L30.63 68.2427C29.385 69.0442 28.1001 69.3718 26.7751 69.2253C25.4501 69.0788 24.2415 68.4676 23.1493 67.3916C22.2882 66.5432 21.7026 65.6042 21.3926 64.5745C21.0931 63.5552 21.0906 62.518 21.385 61.4629C21.6899 60.4182 22.2925 59.439 23.1926 58.5254Z" fill="#333333"/>
<path d="M41.2509 65.0364C40.7316 64.6237 40.4238 64.1343 40.3275 63.5682C40.252 62.9998 40.3931 62.4905 40.7508 62.0404C41.1177 61.5788 41.5819 61.3263 42.1436 61.2831C42.7259 61.2374 43.2767 61.421 43.7961 61.8337C44.3039 62.2373 44.5956 62.7233 44.6711 63.2917C44.7673 63.8577 44.632 64.3716 44.2651 64.8332C43.9074 65.2834 43.4374 65.5312 42.8551 65.5769C42.2935 65.6201 41.7587 65.44 41.2509 65.0364ZM41.9245 67.2099L34.2477 76.87L31.2874 74.5174L38.9642 64.8573L41.9245 67.2099Z" fill="#333333"/>
<path d="M51.641 73.7108C52.8656 74.4773 53.59 75.4873 53.8142 76.7407C54.0587 77.9894 53.7469 79.3073 52.8787 80.6943L49.054 86.8048L45.8676 84.8104L49.4224 79.131C49.8604 78.4312 50.0194 77.7742 49.8995 77.16C49.7796 76.5458 49.4135 76.0471 48.8012 75.6638C48.1889 75.2806 47.5803 75.1692 46.9755 75.3298C46.3706 75.4903 45.8492 75.9205 45.4112 76.6203L41.8564 82.2997L38.6512 80.2935L45.1977 69.8344L48.4029 71.8406L47.5347 73.2276C48.149 72.9686 48.8132 72.88 49.5272 72.9617C50.2491 73.031 50.9537 73.2807 51.641 73.7108Z" fill="#333333"/>
<path d="M55.639 83.3766C56.1469 82.215 56.8089 81.2897 57.625 80.6007C58.4546 79.9176 59.351 79.5051 60.3141 79.3631C61.2772 79.221 62.2248 79.3538 63.1568 79.7613C63.9537 80.1097 64.5784 80.5759 65.031 81.16C65.4971 81.7499 65.7771 82.3791 65.8709 83.0477L66.5708 81.4471L70.0354 82.9619L65.0922 94.2674L61.6276 92.7526L62.3274 91.152C61.7594 91.5311 61.1007 91.7499 60.3511 91.8083C59.615 91.8726 58.8485 91.7306 58.0516 91.3821C57.1331 90.9805 56.399 90.378 55.8493 89.5745C55.3055 88.7575 55.0027 87.8126 54.9408 86.7397C54.8984 85.6593 55.1311 84.5382 55.639 83.3766ZM64.0992 87.0998C64.4772 86.2354 64.5323 85.4469 64.2645 84.7346C64.0103 84.0281 63.5387 83.5243 62.8499 83.2231C62.161 82.9219 61.4642 82.9149 60.7594 83.202C60.074 83.4816 59.5424 84.0536 59.1644 84.918C58.7864 85.7825 58.7216 86.5747 58.9699 87.2947C59.2377 88.0071 59.716 88.5139 60.4049 88.8151C61.0937 89.1163 61.7838 89.1203 62.4751 88.8273C63.1798 88.5401 63.7212 87.9643 64.0992 87.0998Z" fill="#333333"/>
<path d="M83.1983 88.5767C83.6608 88.0849 84.2527 87.7328 84.9738 87.5201C85.6949 87.3074 86.4742 87.2874 87.3117 87.4599C88.3079 87.6652 89.1583 88.1038 89.8627 88.7757C90.5672 89.4477 91.0537 90.3005 91.3224 91.3342C91.6055 92.3709 91.6191 93.5101 91.3633 94.7518C91.1075 95.9935 90.6431 97.0418 89.9703 97.8966C89.3149 98.7399 88.5294 99.3381 87.6137 99.6913C86.7011 100.03 85.7466 100.097 84.7503 99.8916C83.8984 99.7161 83.1891 99.3968 82.6222 98.9338C82.0583 98.4564 81.6539 97.899 81.4089 97.2615L81.0609 98.9508L77.3574 98.1878L80.6594 82.1609L84.3629 82.9239L83.1983 88.5767ZM87.5948 93.9754C87.7852 93.0513 87.6741 92.2758 87.2614 91.6489C86.8661 91.0106 86.293 90.6141 85.5422 90.4594C84.8059 90.3077 84.1227 90.4454 83.4929 90.8725C82.8775 91.3026 82.4746 91.9797 82.2842 92.9038C82.0938 93.8278 82.1962 94.6091 82.5915 95.2474C83.0012 95.8887 83.5743 96.2852 84.3106 96.437C85.047 96.5887 85.7301 96.451 86.36 96.0238C86.9928 95.5823 87.4044 94.8994 87.5948 93.9754Z" fill="#333333"/>
<path d="M107.612 89.7421L106.92 102.062L103.145 101.85L103.239 100.172C102.826 100.695 102.279 101.107 101.597 101.408C100.931 101.696 100.201 101.817 99.4062 101.772C98.4642 101.719 97.6442 101.467 96.9461 101.014C96.2489 100.547 95.7239 99.9045 95.3712 99.0873C95.0184 98.2702 94.8722 97.3244 94.9326 96.2499L95.3369 89.0525L99.0902 89.2633L98.7144 95.953C98.6681 96.7772 98.8455 97.4295 99.2467 97.9097C99.6479 98.39 100.209 98.6504 100.93 98.6909C101.666 98.7322 102.26 98.5368 102.713 98.1045C103.165 97.6722 103.415 97.0439 103.461 96.2196L103.837 89.53L107.612 89.7421Z" fill="#333333"/>
<path d="M123.473 94.6159C123.504 94.9685 123.513 95.3375 123.501 95.7232L114.975 96.451C115.099 97.2098 115.391 97.7766 115.852 98.1515C116.327 98.5105 116.88 98.6631 117.511 98.6091C118.451 98.5289 119.071 98.0765 119.371 97.252L123.381 96.9097C123.244 97.7352 122.932 98.4942 122.443 99.1869C121.97 99.8783 121.345 100.442 120.568 100.878C119.791 101.314 118.904 101.575 117.905 101.66C116.701 101.763 115.606 101.598 114.622 101.164C113.638 100.73 112.841 100.058 112.231 99.1486C111.621 98.239 111.261 97.1452 111.152 95.8673C111.043 94.5894 111.205 93.4512 111.637 92.4525C112.085 91.4527 112.756 90.6556 113.653 90.0612C114.549 89.4669 115.606 89.1177 116.826 89.0136C118.015 88.9121 119.094 89.0715 120.062 89.4919C121.03 89.9124 121.811 90.5633 122.404 91.4448C123.012 92.3251 123.368 93.3821 123.473 94.6159ZM119.533 93.9536C119.478 93.3073 119.214 92.812 118.74 92.4677C118.267 92.1234 117.7 91.9795 117.039 92.0359C116.407 92.0898 115.887 92.3191 115.478 92.724C115.083 93.1275 114.863 93.6715 114.818 94.356L119.533 93.9536Z" fill="#333333"/>
<path d="M133.165 86.4048C134.573 86.0805 135.799 86.2821 136.844 87.0095C137.9 87.7193 138.612 88.8715 138.979 90.4661L140.597 97.4909L136.934 98.3347L135.43 91.8056C135.245 91.0011 134.893 90.4242 134.373 90.0748C133.854 89.7254 133.243 89.6318 132.539 89.794C131.835 89.9561 131.326 90.3079 131.012 90.8492C130.698 91.3905 130.633 92.0634 130.819 92.8678L132.323 99.397L128.638 100.246L125.868 88.2218L129.553 87.373L129.92 88.9676C130.171 88.35 130.578 87.8176 131.141 87.3703C131.7 86.9086 132.375 86.5868 133.165 86.4048Z" fill="#333333"/>
<path d="M142.826 90.4112C142.364 89.2308 142.177 88.1085 142.267 87.0442C142.37 85.9745 142.712 85.0489 143.292 84.2673C143.873 83.4857 144.636 82.9093 145.584 82.5382C146.393 82.2208 147.165 82.1086 147.898 82.2013C148.645 82.2887 149.287 82.5355 149.827 82.9417L149.189 81.3152L152.71 79.9355L157.212 91.4239L153.691 92.8035L153.054 91.177C152.921 91.8468 152.61 92.4674 152.121 93.0389C151.646 93.605 151.004 94.0467 150.194 94.364C149.261 94.7298 148.316 94.8231 147.359 94.6439C146.396 94.451 145.514 93.9972 144.711 93.2825C143.917 92.5487 143.289 91.5916 142.826 90.4112ZM151.44 87.0594C151.096 86.1809 150.577 85.5846 149.884 85.2704C149.205 84.9508 148.515 84.9281 147.815 85.2025C147.115 85.4768 146.618 85.9647 146.322 86.6662C146.036 87.3485 146.064 88.1289 146.409 89.0074C146.753 89.8858 147.267 90.4917 147.952 90.825C148.645 91.1392 149.342 91.1592 150.042 90.8849C150.742 90.6106 151.233 90.1253 151.514 89.4292C151.809 88.7278 151.785 87.9378 151.44 87.0594Z" fill="#333333"/>
<path d="M171.349 79.5027L168.776 70.6712L172.146 68.4703L175.228 81.1951L171.322 83.7467L160.908 75.8105L164.296 73.5976L171.349 79.5027Z" fill="#333333"/>
<path d="M175.19 64.2283C174.677 64.649 174.133 64.8468 173.56 64.8216C172.988 64.7756 172.52 64.5304 172.156 64.0859C171.782 63.6299 171.633 63.1229 171.709 62.5648C171.787 61.9859 172.082 61.4861 172.595 61.0654C173.097 60.654 173.633 60.4713 174.205 60.5173C174.778 60.5425 175.252 60.7831 175.626 61.239C175.991 61.6835 176.134 62.1952 176.056 62.7741C175.98 63.3322 175.691 63.817 175.19 64.2283ZM177.456 64.0279L185.282 73.568L182.358 75.9661L174.533 66.426L177.456 64.0279Z" fill="#333333"/>
<path d="M184.599 59.8883C184.434 59.2338 184.456 58.5454 184.665 57.8232C184.874 57.101 185.276 56.4334 185.872 55.8205C186.582 55.0914 187.409 54.6108 188.354 54.3788C189.3 54.1468 190.28 54.1958 191.296 54.5258C192.322 54.8453 193.29 55.447 194.199 56.331C195.107 57.215 195.741 58.1705 196.099 59.1977C196.457 60.204 196.538 61.188 196.343 62.1498C196.137 63.1013 195.68 63.9417 194.971 64.6708C194.364 65.2942 193.713 65.7202 193.018 65.9488C192.312 66.167 191.625 66.2078 190.955 66.0711L192.192 67.2738L189.555 69.9842L177.826 58.5745L180.462 55.864L184.599 59.8883ZM191.516 59.089C190.839 58.4311 190.126 58.1074 189.376 58.1177C188.625 58.1073 187.982 58.3768 187.448 58.9263C186.923 59.4652 186.672 60.115 186.693 60.8758C186.724 61.6259 187.078 62.33 187.754 62.9878C188.43 63.6457 189.144 63.9798 189.895 63.9903C190.656 63.9902 191.298 63.7207 191.822 63.1818C192.347 62.6429 192.598 61.993 192.577 61.2323C192.546 60.4613 192.192 59.7468 191.516 59.089Z" fill="#333333"/>
<path d="M195.587 47.7745C195.313 47.0126 195.223 46.2516 195.318 45.4913C195.401 44.7221 195.687 44.0142 196.176 43.3676L199.368 45.7826L198.74 46.6114C198.171 47.3638 197.909 48.0526 197.953 48.6779C197.986 49.2942 198.408 49.9093 199.219 50.523L203.786 53.9787L201.505 56.9941L191.665 49.549L193.947 46.5336L195.587 47.7745Z" fill="#333333"/>
<path d="M202.971 44.7814C201.874 44.1472 201.028 43.3861 200.434 42.4983C199.848 41.5977 199.538 40.661 199.504 39.688C199.47 38.7151 199.708 37.7882 200.217 36.9075C200.652 36.1544 201.185 35.5855 201.815 35.2008C202.454 34.8034 203.11 34.5953 203.785 34.5766L202.272 33.7027L204.164 30.4285L214.848 36.601L212.956 39.8752L211.444 39.0013C211.757 39.608 211.901 40.2871 211.876 41.0385C211.858 41.7771 211.631 42.523 211.196 43.2761C210.695 44.1441 210.014 44.8065 209.154 45.2632C208.282 45.7125 207.309 45.9082 206.236 45.8501C205.157 45.7718 204.069 45.4156 202.971 44.7814ZM207.614 36.7889C206.797 36.3169 206.02 36.1743 205.282 36.361C204.552 36.5349 203.999 36.9473 203.623 37.5983C203.246 38.2493 203.162 38.941 203.369 39.6734C203.57 40.3857 204.079 40.9778 204.896 41.4498C205.713 41.9217 206.493 42.0745 207.236 41.9079C207.974 41.7212 208.531 41.3024 208.907 40.6514C209.283 40.0004 209.364 39.3151 209.15 38.5955C208.943 37.8631 208.431 37.2609 207.614 36.7889Z" fill="#333333"/>
</g>
<defs>
<clipPath id="clip0_52_42">
<rect width="215" height="102" fill="white"/>
</clipPath>
</defs>
</svg>
