<svg width="229" height="117" viewBox="0 0 229 117" fill="none" xmlns="http://www.w3.org/2000/svg">
<g clip-path="url(#clip0_1766_4825)">
<circle cx="68.6512" cy="21.6512" r="21.6512" fill="#AFD5BB"/>
<circle cx="161.44" cy="21.6512" r="21.6512" fill="#AFD5BB"/>
<path d="M14.5887 68.4971C15.6302 68.1483 16.6652 68.0493 17.6936 68.2003C18.7344 68.3356 19.686 68.7447 20.5484 69.4275L17.1778 73.6847L16.0723 72.8095C15.0688 72.0149 14.1423 71.6385 13.2929 71.6803C12.456 71.7064 11.6092 72.2604 10.7525 73.3423L5.92936 79.4341L1.90737 76.2497L12.2986 63.1253L16.3206 66.3097L14.5887 68.4971Z" fill="#AFD5BB"/>
<path d="M34.3488 88.142C34.0979 88.5512 33.811 88.9618 33.4881 89.3737L23.5903 83.3053C23.1149 84.2338 22.9781 85.0883 23.1798 85.8689C23.4091 86.6428 23.8903 87.2546 24.6235 87.7041C25.7147 88.3731 26.7557 88.378 27.7465 87.7186L32.4013 90.5725C31.5876 91.3639 30.6353 91.9413 29.5445 92.3047C28.4707 92.6786 27.3343 92.7912 26.1352 92.6425C24.936 92.4938 23.7568 92.0641 22.5973 91.3532C21.1992 90.496 20.1374 89.4345 19.4121 88.1687C18.6867 86.9029 18.3569 85.5277 18.4226 84.043C18.4883 82.5584 18.9758 81.0744 19.8853 79.591C20.7948 78.1076 21.8876 76.9947 23.1639 76.2523C24.4572 75.5204 25.8324 75.1906 27.2895 75.2628C28.7467 75.3351 30.1828 75.8051 31.598 76.6727C32.9791 77.5195 34.029 78.562 34.7478 79.8003C35.4665 81.0386 35.795 82.3778 35.7332 83.8179C35.6884 85.2684 35.227 86.7098 34.3488 88.142ZM30.5787 84.247C31.0387 83.4968 31.1488 82.7432 30.9091 81.9863C30.6694 81.2293 30.1659 80.6157 29.3986 80.1452C28.6654 79.6957 27.9124 79.5273 27.1396 79.64C26.3837 79.7631 25.7057 80.1802 25.1055 80.8913L30.5787 84.247Z" fill="#AFD5BB"/>
<path d="M43.4658 102.336C42.132 101.742 41.0461 100.985 40.2081 100.064C39.3701 99.1438 38.8245 98.1565 38.5714 97.1024C38.3264 96.03 38.387 94.9843 38.7532 93.9651L43.3849 96.0274C43.2037 96.5817 43.2592 97.1209 43.5513 97.645C43.8433 98.1691 44.3091 98.5735 44.9486 98.8583C45.5332 99.1186 46.0297 99.2083 46.4379 99.1274C46.8725 99.0363 47.1712 98.808 47.3339 98.4426C47.5292 98.0041 47.4431 97.5827 47.0759 97.1783C46.7167 96.7557 46.0825 96.1887 45.1733 95.4773C44.1909 94.7334 43.3953 94.0617 42.7865 93.4623C42.1859 92.8445 41.7549 92.1162 41.4935 91.2774C41.2402 90.4202 41.3455 89.471 41.8092 88.4295C42.1997 87.5525 42.7911 86.8635 43.5834 86.3625C44.4021 85.8513 45.3709 85.5931 46.4899 85.5877C47.627 85.5906 48.8442 85.8808 50.1415 86.4584C52.0599 87.3126 53.3557 88.4588 54.0289 89.897C54.7204 91.3433 54.7985 92.8887 54.2633 94.5332L49.9331 92.6051C50.096 92.0427 50.0456 91.5168 49.7819 91.0272C49.5365 90.5457 49.0941 90.1627 48.4546 89.8779C47.9065 89.6339 47.4375 89.5564 47.0475 89.6454C46.6657 89.7163 46.3935 89.9344 46.2307 90.2998C46.0355 90.7383 46.1174 91.1688 46.4766 91.5915C46.854 92.0222 47.4872 92.5669 48.3762 93.2255C49.3788 94.0222 50.1713 94.7253 50.7537 95.335C51.3442 95.9263 51.762 96.6597 52.0072 97.5351C52.2787 98.4003 52.1876 99.3669 51.7341 100.435C51.3354 101.33 50.7217 102.02 49.8928 102.505C49.0904 102.979 48.1246 103.206 46.9956 103.185C45.8848 103.172 44.7082 102.889 43.4658 102.336Z" fill="#AFD5BB"/>
<path d="M66.7537 95.5739C67.4511 94.9639 68.2892 94.5509 69.268 94.3349C70.2469 94.1188 71.303 94.1751 72.4363 94.5036C73.7618 94.8877 74.8649 95.5719 75.7457 96.556C76.6266 97.5402 77.1934 98.7456 77.4462 100.172C77.7182 101.605 77.6148 103.147 77.1359 104.799C76.6571 106.451 75.917 107.819 74.9156 108.903C73.9389 109.973 72.8126 110.699 71.5364 111.078C70.2658 111.439 68.9678 111.427 67.6423 111.043C66.5282 110.72 65.6057 110.203 64.8749 109.491C64.1633 108.785 63.6732 107.997 63.4046 107.128L60.5315 117.04L55.6043 115.612L62.4863 91.8694L67.4135 93.2975L66.7537 95.5739ZM72.1223 103.346C72.4786 102.116 72.4113 101.056 71.9202 100.164C71.4539 99.258 70.7213 98.6604 69.7224 98.3709C68.7427 98.0869 67.8041 98.2001 66.9065 98.7104C66.0282 99.2263 65.4108 100.099 65.0545 101.328C64.6982 102.558 64.7531 103.625 65.2194 104.531C65.705 105.442 66.4376 106.04 67.4172 106.324C68.3969 106.608 69.3355 106.494 70.2331 105.984C71.1362 105.455 71.7659 104.575 72.1223 103.346Z" fill="#AFD5BB"/>
<path d="M90.7104 115.863C89.0857 115.639 87.6672 115.091 86.455 114.217C85.2626 113.346 84.3786 112.215 83.803 110.824C83.2471 109.435 83.0879 107.879 83.3251 106.155C83.5597 104.451 84.142 103.007 85.0722 101.823C86.0051 100.619 87.1731 99.7601 88.5762 99.2466C89.9794 98.7332 91.4933 98.5882 93.1179 98.8119C94.7426 99.0355 96.1611 99.584 97.3733 100.458C98.5855 101.331 99.4781 102.473 100.051 103.885C100.627 105.276 100.797 106.824 100.563 108.528C100.328 110.232 99.7344 111.684 98.7817 112.886C97.8516 114.07 96.675 114.917 95.2521 115.428C93.8489 115.942 92.335 116.086 90.7104 115.863ZM91.3158 111.464C92.2866 111.598 93.158 111.354 93.9298 110.734C94.7215 110.116 95.2086 109.143 95.3914 107.816C95.5741 106.489 95.3777 105.422 94.8022 104.616C94.2466 103.812 93.4833 103.344 92.5125 103.21C91.5218 103.074 90.6505 103.317 89.8985 103.941C89.1492 104.544 88.6818 105.52 88.4964 106.867C88.3137 108.194 88.4902 109.258 89.0261 110.059C89.5817 110.862 90.345 111.331 91.3158 111.464Z" fill="#AFD5BB"/>
<path d="M118.314 100.41C120.274 100.393 121.84 101.02 123.01 102.29C124.201 103.54 124.806 105.275 124.825 107.495L124.909 117.274L119.809 117.318L119.731 108.228C119.722 107.108 119.424 106.241 118.839 105.626C118.254 105.011 117.471 104.707 116.491 104.716C115.511 104.724 114.734 105.041 114.159 105.666C113.584 106.291 113.302 107.163 113.311 108.283L113.389 117.373L108.259 117.416L108.116 100.677L113.246 100.633L113.265 102.853C113.779 102.109 114.474 101.523 115.35 101.095C116.226 100.648 117.214 100.419 118.314 100.41Z" fill="#AFD5BB"/>
<path d="M141.217 115.696C139.772 115.908 138.45 115.849 137.249 115.519C136.049 115.19 135.06 114.647 134.282 113.892C133.502 113.117 132.994 112.2 132.758 111.143L137.775 110.409C137.918 110.974 138.253 111.4 138.78 111.687C139.308 111.974 139.917 112.066 140.61 111.965C141.243 111.872 141.711 111.683 142.012 111.396C142.331 111.086 142.461 110.734 142.403 110.338C142.334 109.863 142.036 109.553 141.509 109.408C140.98 109.243 140.141 109.103 138.992 108.988C137.764 108.885 136.732 108.743 135.897 108.562C135.06 108.361 134.306 107.976 133.636 107.407C132.964 106.818 132.545 105.96 132.38 104.832C132.241 103.882 132.372 102.983 132.774 102.136C133.192 101.266 133.873 100.53 134.816 99.9272C135.778 99.3215 136.962 98.9158 138.367 98.7101C140.445 98.406 142.152 98.6815 143.49 99.5368C144.848 100.389 145.741 101.653 146.168 103.329L141.478 104.015C141.315 103.453 140.991 103.036 140.506 102.763C140.041 102.487 139.463 102.4 138.77 102.502C138.176 102.589 137.739 102.774 137.457 103.058C137.172 103.322 137.059 103.652 137.117 104.047C137.186 104.522 137.486 104.842 138.015 105.007C138.564 105.17 139.391 105.291 140.494 105.372C141.767 105.509 142.813 105.68 143.631 105.883C144.446 106.067 145.192 106.463 145.867 107.072C146.559 107.658 146.999 108.523 147.187 109.668C147.329 110.638 147.179 111.549 146.738 112.402C146.314 113.232 145.619 113.94 144.654 114.526C143.708 115.109 142.562 115.499 141.217 115.696Z" fill="#AFD5BB"/>
<path d="M153.034 104.976C152.555 103.324 152.442 101.784 152.695 100.357C152.967 98.9251 153.544 97.7169 154.424 96.7328C155.305 95.7486 156.408 95.0645 157.734 94.6803C158.867 94.3518 159.923 94.2955 160.902 94.5116C161.9 94.722 162.738 95.135 163.416 95.7506L162.757 93.4743L167.684 92.0461L172.344 108.124L167.417 109.552L166.757 107.276C166.494 108.165 165.997 108.964 165.266 109.676C164.555 110.382 163.632 110.899 162.499 111.228C161.193 111.606 159.904 111.616 158.634 111.255C157.358 110.875 156.222 110.153 155.226 109.088C154.244 107.998 153.513 106.628 153.034 104.976ZM165.087 101.513C164.731 100.284 164.104 99.4141 163.206 98.9038C162.328 98.388 161.399 98.272 160.419 98.556C159.439 98.8399 158.707 99.4375 158.221 100.349C157.749 101.235 157.692 102.293 158.048 103.522C158.404 104.752 159.024 105.634 159.908 106.169C160.806 106.679 161.744 106.793 162.724 106.509C163.704 106.225 164.427 105.63 164.893 104.724C165.379 103.813 165.443 102.743 165.087 101.513Z" fill="#AFD5BB"/>
<path d="M180.019 89.6212C180.13 88.7121 180.494 87.8517 181.112 87.04C181.729 86.2283 182.565 85.5805 183.62 85.0966C184.874 84.5209 186.156 84.3176 187.466 84.4866C188.776 84.6555 189.993 85.1973 191.117 86.1118C192.259 87.018 193.189 88.2526 193.906 89.8158C194.624 91.379 194.958 92.8981 194.909 94.3731C194.869 95.8216 194.491 97.1066 193.773 98.2282C193.047 99.3316 192.057 100.171 190.803 100.747C189.731 101.239 188.699 101.46 187.707 101.409C186.707 101.34 185.817 101.055 185.037 100.554L186.013 102.681L181.351 104.821L172.09 84.645L176.753 82.505L180.019 89.6212ZM189.162 91.9934C188.628 90.8301 187.884 90.0714 186.929 89.7174C185.984 89.3369 185.039 89.3635 184.094 89.7974C183.167 90.2228 182.53 90.922 182.185 91.8949C181.857 92.8595 181.961 93.9234 182.495 95.0867C183.028 96.25 183.768 97.0219 184.713 97.4025C185.676 97.7747 186.621 97.748 187.548 97.3225C188.475 96.897 189.111 96.1978 189.457 95.2249C189.794 94.2339 189.696 93.1567 189.162 91.9934Z" fill="#AFD5BB"/>
<path d="M197.65 71.4967L209.146 90.4886L204.757 93.145L193.262 74.1531L197.65 71.4967Z" fill="#AFD5BB"/>
<path d="M224.062 69.1796C224.353 69.561 224.633 69.9765 224.901 70.426L215.677 77.4762C216.372 78.2539 217.12 78.6891 217.921 78.7818C218.725 78.8465 219.469 78.6178 220.153 78.0955C221.17 77.3182 221.549 76.3488 221.29 75.1871L225.628 71.8715C226.074 72.9155 226.27 74.0117 226.216 75.1603C226.178 76.2967 225.874 77.3975 225.304 78.4627C224.734 79.5279 223.908 80.4735 222.828 81.2993C221.525 82.2952 220.152 82.9037 218.71 83.1248C217.268 83.346 215.866 83.1587 214.505 82.563C213.143 81.9674 211.934 80.9783 210.878 79.5959C209.821 78.2134 209.176 76.7932 208.943 75.3353C208.726 73.8652 208.913 72.4634 209.505 71.13C210.097 69.7966 211.052 68.6258 212.371 67.6178C213.658 66.6341 215.009 66.0298 216.423 65.8049C217.837 65.5801 219.204 65.7556 220.526 66.3316C221.863 66.8955 223.041 67.8448 224.062 69.1796ZM219.071 71.2951C218.536 70.5959 217.873 70.2219 217.08 70.1731C216.288 70.1243 215.534 70.3732 214.819 70.9197C214.136 71.4419 213.708 72.0839 213.535 72.8455C213.377 73.5949 213.522 74.3776 213.97 75.1936L219.071 71.2951Z" fill="#AFD5BB"/>
</g>
<defs>
<clipPath id="clip0_1766_4825">
<rect width="229" height="117" fill="white"/>
</clipPath>
</defs>
</svg>
