<svg width="181" height="113" viewBox="0 0 181 113" fill="none" xmlns="http://www.w3.org/2000/svg">
<g clip-path="url(#clip0_1766_4824)">
<circle cx="44.5574" cy="21.6512" r="21.6512" fill="#AFD5BB"/>
<circle cx="137.346" cy="21.6512" r="21.6512" fill="#AFD5BB"/>
<path d="M5.00077 84.846C3.83479 83.9673 2.94705 82.9852 2.33755 81.8998C1.72805 80.8144 1.41855 79.7297 1.40905 78.6457C1.41159 77.5457 1.70591 76.5403 2.29201 75.6297L6.34099 78.681C6.03983 79.1803 5.97259 79.7182 6.13927 80.2946C6.30594 80.871 6.66879 81.3698 7.22782 81.7911C7.73893 82.1763 8.20247 82.3753 8.61845 82.3883C9.06243 82.3973 9.40478 82.2421 9.64552 81.9227C9.93441 81.5393 9.9454 81.1093 9.6785 80.6327C9.42363 80.1401 8.93323 79.445 8.2073 78.5473C7.41748 77.6015 6.7934 76.7681 6.33506 76.047C5.88876 75.31 5.63261 74.5034 5.56663 73.6272C5.51269 72.7351 5.82877 71.8338 6.51487 70.9234C7.09264 70.1567 7.82388 69.6184 8.7086 69.3085C9.62133 68.9946 10.6234 68.9609 11.7148 69.2074C12.8222 69.4659 13.943 70.0225 15.077 70.8772C16.7541 72.141 17.7588 73.5493 18.0913 75.1021C18.4397 76.6669 18.1681 78.1903 17.2767 79.6722L13.4913 76.8195C13.7765 76.3082 13.8457 75.7843 13.6989 75.248C13.5681 74.7237 13.2232 74.2509 12.6642 73.8296C12.185 73.4685 11.7454 73.2875 11.3454 73.2866C10.9575 73.2697 10.6431 73.4209 10.4024 73.7404C10.1135 74.1237 10.0965 74.5617 10.3514 75.0543C10.6222 75.5589 11.1166 76.232 11.8347 77.0737C12.6324 78.0755 13.2464 78.939 13.6767 79.6639C14.1191 80.373 14.3612 81.1815 14.4031 82.0896C14.4731 82.9938 14.1669 83.9151 13.4848 84.8535C12.895 85.6362 12.1417 86.1704 11.2251 86.4563C10.3364 86.7383 9.34441 86.742 8.24904 86.4675C7.16964 86.205 6.08689 85.6645 5.00077 84.846Z" fill="#AFD5BB"/>
<path d="M20.7865 85.5447C21.5739 84.0155 22.5496 82.8195 23.7137 81.9567C24.8956 81.103 26.1446 80.6214 27.4608 80.5117C28.777 80.4021 30.0486 80.6631 31.2755 81.2948C32.3246 81.835 33.1305 82.5199 33.6931 83.3495C34.2736 84.1882 34.5986 85.0642 34.6683 85.9774L35.7532 83.8703L40.3142 86.2187L32.6511 101.102L28.0902 98.7534L29.1751 96.6463C28.3735 97.1109 27.4628 97.3505 26.4429 97.3653C25.4408 97.3892 24.4151 97.1311 23.366 96.5909C22.1569 95.9684 21.2147 95.0895 20.5394 93.9545C19.8732 92.8017 19.5443 91.4963 19.5526 90.0384C19.5878 88.5718 19.9991 87.0739 20.7865 85.5447ZM31.9217 91.3118C32.5077 90.1738 32.6499 89.1111 32.3486 88.1236C32.065 87.1452 31.4697 86.4226 30.5629 85.9556C29.656 85.4887 28.7132 85.4194 27.7343 85.7477C26.7823 86.0674 26.0134 86.7963 25.4274 87.9343C24.8415 89.0723 24.6858 90.1394 24.9602 91.1355C25.2616 92.123 25.8657 92.8502 26.7725 93.3172C27.6794 93.7841 28.6134 93.8488 29.5745 93.5113C30.5534 93.183 31.3358 92.4498 31.9217 91.3118Z" fill="#AFD5BB"/>
<path d="M53.7134 85.2218L46.4452 106.198L41.5979 104.519L48.8661 83.5423L53.7134 85.2218Z" fill="#AFD5BB"/>
<path d="M74.5311 95.6932L71.343 112.127L66.3069 111.15L66.7411 108.912C66.0897 109.539 65.2785 109.993 64.3073 110.273C63.3596 110.537 62.3557 110.567 61.2954 110.361C60.0389 110.117 58.9829 109.627 58.1275 108.891C57.2759 108.135 56.6878 107.175 56.3634 106.012C56.0389 104.849 56.0158 103.551 56.2938 102.118L58.1563 92.5166L63.163 93.4878L61.4319 102.411C61.2186 103.511 61.3376 104.42 61.7889 105.139C62.2402 105.859 62.9469 106.311 63.909 106.498C64.8906 106.688 65.7252 106.535 66.4127 106.036C67.1001 105.538 67.5505 104.739 67.7638 103.64L69.4949 94.7162L74.5311 95.6932Z" fill="#AFD5BB"/>
<path d="M80.1068 104.76C80.119 103.04 80.4497 101.532 81.0989 100.237C81.7681 98.9413 82.6652 97.9476 83.7902 97.2556C84.9151 96.5636 86.1675 96.2224 87.5475 96.2322C88.6475 96.24 89.6458 96.4771 90.5425 96.9435C91.4593 97.41 92.1748 98.0351 92.6893 98.8188L92.7444 91.049L97.8743 91.0854L97.7168 113.285L92.5869 113.248L92.6039 110.848C92.1182 111.645 91.4237 112.28 90.5203 112.754C89.637 113.227 88.6053 113.46 87.4253 113.452C86.0453 113.442 84.7979 113.083 83.6829 112.375C82.568 111.647 81.6852 110.631 81.0344 109.326C80.4038 108.002 80.0946 106.48 80.1068 104.76ZM92.6463 104.879C92.6554 103.599 92.3025 102.586 91.5878 101.841C90.8931 101.096 90.0357 100.72 89.0158 100.713C87.9958 100.706 87.1232 101.069 86.3979 101.804C85.6928 102.519 85.3358 103.517 85.3267 104.797C85.3176 106.077 85.6603 107.099 86.3549 107.864C87.0697 108.609 87.937 108.985 88.957 108.993C89.977 109 90.8396 108.636 91.5448 107.901C92.27 107.166 92.6372 106.159 92.6463 104.879Z" fill="#AFD5BB"/>
<path d="M104.86 104.433C104.556 102.74 104.605 101.197 105.005 99.8045C105.426 98.4084 106.125 97.267 107.104 96.3803C108.083 95.4936 109.251 94.9285 110.61 94.685C111.771 94.4767 112.827 94.5312 113.778 94.8483C114.749 95.1619 115.539 95.6603 116.149 96.3433L115.731 94.0105L120.781 93.1051L123.735 109.582L118.686 110.488L118.267 108.155C117.913 109.011 117.335 109.755 116.534 110.386C115.752 111.014 114.781 111.432 113.619 111.64C112.281 111.88 110.998 111.754 109.772 111.263C108.543 110.752 107.489 109.915 106.61 108.752C105.747 107.565 105.163 106.126 104.86 104.433ZM117.208 102.249C116.982 100.989 116.45 100.059 115.611 99.4573C114.791 98.8525 113.879 98.64 112.875 98.8201C111.871 99.0001 111.08 99.5178 110.502 100.373C109.94 101.206 109.772 102.252 109.998 103.511C110.224 104.771 110.748 105.714 111.572 106.338C112.411 106.939 113.332 107.15 114.336 106.97C115.34 106.79 116.122 106.274 116.68 105.422C117.258 104.567 117.434 103.509 117.208 102.249Z" fill="#AFD5BB"/>
<path d="M132.774 91.8093C132.947 90.9099 133.369 90.0764 134.041 89.3088C134.713 88.5412 135.591 87.952 136.676 87.5413C137.967 87.0527 139.259 86.9374 140.555 87.1955C141.85 87.4535 143.027 88.0772 144.086 89.0663C145.164 90.0484 146.007 91.3437 146.616 92.9523C147.225 94.5609 147.454 96.0992 147.305 97.5674C147.166 99.0098 146.701 100.266 145.909 101.336C145.109 102.387 144.064 103.157 142.773 103.646C141.67 104.064 140.625 104.213 139.639 104.095C138.646 103.957 137.778 103.612 137.034 103.06L137.863 105.248L133.065 107.065L125.204 86.303L130.002 84.4866L132.774 91.8093ZM141.734 94.8006C141.281 93.6035 140.59 92.7958 139.662 92.3774C138.745 91.9332 137.8 91.8952 136.828 92.2635C135.874 92.6246 135.191 93.2787 134.78 94.2257C134.387 95.1656 134.418 96.2341 134.871 97.4312C135.324 98.6283 136.009 99.4489 136.926 99.8931C137.861 100.33 138.806 100.368 139.76 100.007C140.714 99.6459 141.396 98.9918 141.807 98.0448C142.212 97.0791 142.187 95.9977 141.734 94.8006Z" fill="#AFD5BB"/>
<path d="M150.937 74.8895L161.656 94.3305L157.163 96.8074L146.445 77.3664L150.937 74.8895Z" fill="#AFD5BB"/>
<path d="M177.001 73.3677C177.288 73.7531 177.562 74.1724 177.823 74.6257L168.502 81.5471C169.186 82.3344 169.928 82.7799 170.728 82.8838C171.531 82.9596 172.278 82.7412 172.969 82.2285C173.997 81.4654 174.389 80.5013 174.147 79.3361L178.53 76.0811C178.961 77.1312 179.142 78.23 179.073 79.3777C179.019 80.5135 178.7 81.61 178.115 82.6672C177.53 83.7244 176.691 84.6584 175.599 85.4691C174.283 86.4468 172.902 87.0362 171.457 87.2373C170.012 87.4384 168.613 87.2317 167.26 86.6172C165.907 86.0027 164.712 84.997 163.674 83.6C162.637 82.203 162.012 80.774 161.799 79.3129C161.602 77.84 161.809 76.441 162.419 75.1159C163.029 73.7908 164.001 72.6334 165.334 71.6438C166.634 70.678 167.993 70.0925 169.41 69.8873C170.827 69.6821 172.192 69.8766 173.505 70.4709C174.834 71.0533 176 72.0189 177.001 73.3677ZM171.982 75.4137C171.457 74.7072 170.799 74.324 170.007 74.2642C169.215 74.2044 168.458 74.4428 167.736 74.9793C167.045 75.492 166.608 76.1279 166.424 76.8871C166.257 77.6343 166.391 78.4189 166.827 79.241L171.982 75.4137Z" fill="#AFD5BB"/>
</g>
<defs>
<clipPath id="clip0_1766_4824">
<rect width="181" height="113" fill="white"/>
</clipPath>
</defs>
</svg>
